<?xml version="1.0" standalone="no"?>
<!DOCTYPE svg PUBLIC "-//W3C//DTD SVG 20010904//EN"
 "http://www.w3.org/TR/2001/REC-SVG-20010904/DTD/svg10.dtd">
<svg version="1.0" xmlns="http://www.w3.org/2000/svg"
 width="600.000000pt" height="600.000000pt" viewBox="0 0 600.000000 600.000000"
 preserveAspectRatio="xMidYMid meet">
<metadata>
Created by potrace 1.11, written by Peter Selinger 2001-2013
</metadata>
<g transform="translate(0.000000,600.000000) scale(0.100000,-0.100000)"
fill="#000000" stroke="none">
<path d="M2770 5843 l-34 -107 -21 45 c-11 25 -29 67 -39 92 -18 44 -36 62
-36 36 0 -7 -10 -38 -21 -71 -19 -51 -25 -58 -43 -52 -62 17 -62 17 -28 -18
17 -19 32 -37 32 -40 0 -3 -50 7 -111 22 l-112 28 39 -40 c22 -23 61 -63 88
-88 l48 -47 -41 -126 c-23 -69 -41 -128 -41 -132 0 -4 17 3 38 15 123 73 146
84 139 66 -4 -10 -10 -29 -13 -43 l-7 -25 39 24 c22 14 44 28 51 31 7 4 51
-24 105 -68 51 -41 96 -75 99 -75 3 0 -9 41 -28 91 -19 50 -32 93 -30 95 2 2
17 -7 33 -20 125 -104 178 -145 182 -141 4 3 -39 128 -77 225 l-18 45 71 47
c79 53 82 49 -47 83 l-79 20 -45 110 c-24 61 -47 113 -51 117 -4 4 -23 -41
-42 -99z"/>
<path d="M3803 5848 c-5 -7 -25 -43 -43 -79 -36 -70 -55 -79 -66 -30 -3 14
-11 43 -18 65 l-12 39 -24 -47 c-25 -47 -29 -49 -75 -30 -17 7 -16 3 7 -28 43
-57 20 -63 -77 -23 -44 18 -82 31 -84 30 -2 -2 22 -38 53 -81 31 -42 56 -80
56 -85 0 -5 -20 -51 -45 -101 -25 -50 -43 -94 -40 -96 2 -3 28 7 57 20 29 14
64 29 76 33 22 6 23 5 13 -14 -14 -25 -11 -25 35 -6 l36 15 47 -52 c25 -28 59
-65 74 -82 l29 -31 -6 30 c-3 17 -12 63 -21 104 -16 74 -13 99 8 70 21 -29
160 -179 163 -176 2 1 -8 47 -21 102 -14 55 -25 108 -25 118 0 13 19 27 63 47
l62 28 -50 21 c-116 50 -107 40 -136 151 -18 72 -29 97 -36 88z"/>
<path d="M1867 5533 c-2 -5 -17 -46 -32 -93 -15 -47 -31 -89 -35 -93 -4 -5
-20 24 -36 65 -47 123 -47 123 -84 13 -23 -68 -36 -95 -45 -91 -34 13 -97 27
-102 23 -2 -3 10 -19 28 -36 39 -37 32 -38 -91 -6 -52 14 -99 25 -103 25 -5 0
11 -20 35 -43 23 -24 71 -73 105 -108 l62 -64 -59 -163 c-33 -90 -60 -168 -60
-173 0 -5 40 18 90 51 49 33 92 60 94 60 3 0 -3 -23 -15 -51 l-20 -52 28 18
c15 10 57 38 93 62 62 41 90 52 90 35 0 -4 12 -15 28 -24 15 -9 36 -25 47 -35
39 -35 118 -93 122 -89 2 2 -11 45 -30 95 -19 49 -29 87 -23 84 6 -4 31 -23
56 -42 167 -134 170 -136 151 -90 -24 57 -101 272 -99 274 2 1 41 27 87 58
l84 56 -44 11 c-24 6 -60 15 -79 20 -19 5 -53 13 -76 19 l-41 11 -58 140 c-31
77 -59 140 -60 140 -2 0 -6 -3 -8 -7z"/>
<path d="M4456 5430 c-21 -33 -31 -40 -47 -35 -19 6 -20 5 -9 -15 14 -26 10
-24 -60 25 -25 18 -51 35 -57 39 -11 6 49 -150 62 -163 3 -2 -20 -39 -50 -81
-30 -43 -55 -80 -55 -83 0 -3 34 4 75 15 42 11 79 18 82 15 3 -4 -7 -23 -22
-43 l-28 -37 34 7 c19 4 40 9 47 9 8 1 32 -27 54 -63 l40 -65 -5 78 c-5 81 -2
84 30 31 63 -109 85 -144 88 -144 2 0 1 49 -2 108 l-6 109 53 14 52 15 -54 42
c-44 33 -54 47 -56 74 -2 18 -4 42 -7 53 -2 11 -4 35 -4 53 -1 17 -5 32 -9 32
-4 0 -21 -22 -37 -50 -28 -46 -48 -61 -58 -42 -3 4 -8 36 -11 72 -4 35 -8 66
-10 67 -2 2 -15 -15 -30 -37z"/>
<path d="M1267 4632 c-9 -21 -17 -41 -17 -44 0 -3 -12 -32 -27 -64 l-26 -59
-32 98 -32 99 -31 -74 c-17 -40 -38 -92 -47 -115 -10 -24 -22 -43 -29 -43 -6
0 -40 7 -75 15 -35 9 -66 14 -68 11 -2 -2 7 -17 21 -33 l25 -30 -57 13 c-31 8
-68 16 -82 19 -14 2 -38 7 -54 11 -27 6 -28 6 -10 -13 11 -10 49 -52 86 -93
134 -150 128 -139 104 -193 -31 -70 -135 -341 -132 -344 2 -2 46 28 97 66 52
38 95 68 97 66 1 -1 -7 -26 -18 -55 -11 -29 -19 -54 -18 -56 2 -1 55 35 118
82 63 46 116 84 118 84 1 0 13 -10 26 -22 13 -13 45 -43 72 -67 27 -24 68 -62
90 -84 l42 -39 -29 107 c-17 59 -28 109 -27 111 2 1 37 -29 78 -68 150 -142
143 -136 132 -108 -6 14 -22 68 -36 120 -14 52 -35 126 -45 163 l-20 68 87 57
c48 32 88 62 90 67 2 5 -52 24 -119 41 l-122 31 -51 156 c-27 86 -53 157 -56
157 -3 0 -14 -17 -23 -38z"/>
<path d="M1067 3523 c-2 -5 -19 -52 -37 -107 l-32 -99 -41 97 c-22 53 -43 93
-47 89 -4 -4 -25 -64 -46 -132 l-39 -123 -87 5 c-78 5 -86 4 -73 -10 8 -8 15
-15 15 -17 0 -1 -31 0 -70 2 -65 4 -70 3 -70 -16 0 -12 36 -53 96 -109 l95
-89 -25 -70 c-15 -38 -30 -78 -35 -89 -25 -55 -81 -208 -78 -211 2 -2 12 4 23
14 16 14 124 100 172 135 6 5 1 -20 -13 -57 -14 -37 -25 -69 -25 -72 0 -3 44
31 98 74 149 121 121 119 259 19 66 -48 123 -87 126 -87 3 0 -5 26 -17 58 -48
121 -48 121 66 38 56 -41 104 -73 106 -71 3 2 -14 55 -36 117 -22 62 -49 138
-59 169 l-20 56 104 76 c56 42 103 80 103 85 0 4 -17 8 -37 9 -21 0 -76 4
-123 9 -47 4 -93 8 -102 8 -12 0 -34 42 -79 153 -34 84 -63 153 -65 153 -1 0
-5 -3 -7 -7z"/>
<path d="M1330 2340 c0 -3 -16 -50 -34 -105 l-33 -100 -45 94 -45 93 -37 -113
c-20 -63 -39 -119 -44 -126 -4 -6 -39 -13 -77 -15 -39 -1 -72 -6 -75 -9 -3 -4
-38 -9 -79 -13 -41 -3 -76 -7 -77 -9 -2 -2 48 -39 111 -82 63 -43 115 -83 115
-89 0 -5 -32 -96 -71 -201 -38 -104 -72 -196 -75 -204 -4 -14 42 27 165 143
59 56 60 54 15 -58 -13 -33 -22 -61 -20 -63 2 -2 16 7 31 21 132 123 200 181
208 178 6 -2 57 -39 115 -83 57 -45 105 -79 107 -77 3 2 -9 40 -25 84 -17 43
-30 82 -30 87 0 8 136 -91 180 -130 30 -27 45 -30 35 -5 -4 9 -34 89 -67 177
l-60 159 28 24 c53 45 148 127 179 154 l30 27 -50 -4 c-27 -2 -95 -5 -150 -7
l-100 -3 -23 45 c-12 25 -40 83 -62 130 -22 47 -40 83 -40 80z"/>
<path d="M1963 1314 c-5 -10 -25 -56 -43 -101 -18 -46 -33 -83 -35 -83 -2 0
-17 36 -35 80 -18 44 -35 80 -39 80 -3 0 -28 -57 -55 -125 -27 -69 -51 -125
-53 -125 -4 0 -74 -16 -252 -56 -21 -4 -16 -10 44 -50 37 -24 71 -44 74 -44 3
0 19 -11 35 -23 l29 -24 -38 -104 c-20 -57 -48 -132 -61 -167 -16 -43 -19 -60
-10 -55 18 10 89 69 140 115 23 20 42 35 43 34 2 -1 -2 -17 -7 -34 -6 -18 -14
-46 -20 -63 l-9 -32 27 24 c15 13 29 26 32 29 3 3 25 21 50 41 25 20 56 46 69
58 13 11 26 21 28 21 2 0 51 -32 108 -70 58 -39 105 -68 105 -65 0 3 -15 43
-34 90 -19 47 -32 85 -29 85 3 0 52 -31 109 -70 56 -39 105 -70 107 -70 6 0
-10 45 -72 203 -45 113 -45 111 -6 153 74 79 133 151 132 159 -1 5 -4 9 -7 8
-12 -3 -185 -27 -208 -27 -8 -1 -34 46 -62 113 -39 95 -49 111 -57 95z"/>
<path d="M4980 943 c0 -34 -4 -64 -9 -67 -5 -3 -19 10 -32 28 -13 19 -26 33
-30 31 -3 -2 -7 -28 -8 -57 -2 -56 -14 -76 -68 -109 -39 -24 -37 -34 9 -37 18
-2 37 -7 41 -11 5 -5 7 -39 5 -75 -1 -36 0 -66 4 -66 4 0 21 27 38 60 17 33
32 60 34 60 2 0 2 -16 0 -35 -4 -43 10 -38 31 12 14 32 17 34 50 30 36 -5 37
0 7 35 -7 9 -11 21 -8 26 5 9 63 7 94 -3 21 -7 13 14 -19 55 l-32 40 21 55
c23 60 20 65 -18 35 -34 -27 -40 -25 -77 17 l-32 38 -1 -62z"/>
<path d="M2861 798 c-43 -148 -54 -178 -65 -178 -7 0 -25 36 -41 80 -16 44
-32 80 -36 80 -6 0 -37 -92 -55 -163 -5 -21 -18 -33 -48 -46 -35 -15 -135 -44
-158 -46 -26 -1 -8 -19 61 -59 l79 -45 -53 -168 c-30 -92 -52 -169 -50 -171 2
-2 45 40 96 92 51 53 94 95 95 93 2 -2 -5 -32 -16 -67 -11 -35 -18 -65 -16
-67 2 -2 37 31 78 74 l76 76 53 -38 c30 -22 57 -44 61 -49 4 -6 10 -8 13 -4 4
3 -8 40 -25 82 -25 60 -30 79 -20 91 10 12 27 3 107 -56 53 -38 98 -68 100
-66 2 2 -17 53 -43 113 -25 60 -46 116 -47 124 0 9 30 60 67 113 38 54 67 99
65 101 -2 2 -44 -7 -94 -20 -49 -12 -93 -20 -97 -18 -3 2 -19 41 -33 87 -15
45 -31 86 -35 90 -3 4 -12 -12 -19 -35z"/>
<path d="M4373 711 c-3 -43 -24 -136 -31 -143 -5 -5 -22 17 -39 48 l-30 56 -6
-33 c-4 -19 -9 -52 -13 -74 -7 -47 -23 -64 -95 -101 l-52 -28 57 -19 58 -19
-6 -47 c-12 -85 -17 -116 -21 -129 -12 -33 15 -4 64 71 l53 82 -6 -55 -7 -55
35 49 c20 27 37 50 39 52 2 2 18 -1 37 -6 19 -5 35 -8 37 -6 2 2 -5 21 -16 42
-12 22 -17 40 -13 42 5 1 36 -4 70 -12 34 -8 62 -10 62 -5 0 5 -14 34 -32 65
l-31 56 29 57 c16 31 30 60 32 64 2 5 -19 -3 -47 -17 -28 -14 -52 -26 -55 -26
-2 0 -18 25 -35 55 -17 30 -32 55 -34 55 -1 0 -3 -9 -4 -19z"/>
<path d="M3691 583 c-21 -114 -24 -116 -58 -43 l-31 65 -17 -80 c-9 -44 -19
-88 -21 -97 -3 -10 -42 -35 -90 -58 -46 -22 -84 -42 -84 -44 0 -2 29 -14 65
-27 36 -12 65 -25 65 -28 0 -3 -11 -55 -24 -116 -14 -60 -23 -111 -22 -112 1
-2 26 29 56 68 56 74 78 95 66 64 -3 -10 -9 -34 -12 -54 -6 -35 -4 -34 47 34
29 39 53 71 54 72 0 1 25 -4 55 -12 30 -8 57 -15 58 -15 2 0 -8 20 -22 45 -15
25 -26 45 -24 45 2 0 32 -9 68 -20 36 -11 68 -20 73 -20 4 0 -11 36 -33 80
l-41 81 47 65 c25 36 44 67 41 70 -2 3 -32 -6 -66 -20 l-61 -24 -36 74 c-21
41 -38 74 -39 74 -1 0 -7 -30 -14 -67z"/>
</g>
</svg>
